# xmcd
#
# Track frame offsets:
#	150
#	14902
#	30465
#	41567
#	58142
#	76662
#	89777
#	103245
#	119042
#	132332
#
# Disc length: 1941 seconds
#
# Revision: 6
# Processed by: cddbd v1.5.2PL0 Copyright (c) Steve Scherf et al.
# Submitted via: EasyCDDAExtractor 15.3.0.1
#
DISCID=8e07930a
DTITLE=Selena - Ven Conmigo
DYEAR=1990
DGENRE=Latin
TTITLE0=Ya Ves
TTITLE1=Aunque No Salga El Sol
TTITLE2=Ven Conmigo
TTITLE3=Yo Te Amo
TTITLE4=Enamorada De Ti
TTITLE5=La Tracalera
TTITLE6=Baila Esta Cumbia
TTITLE7=Yo Me Voy
TTITLE8=No Quiero Saber
TTITLE9=Despues De Enero
EXTD=
EXTT0=
EXTT1=
EXTT2=
EXTT3=
EXTT4=
EXTT5=
EXTT6=
EXTT7=
EXTT8=
EXTT9=
PLAYORDER=
